<svg xmlns="http://www.w3.org/2000/svg" width="720" height="460" viewBox="0 0 720 460"><defs><radialGradient id="g"><stop stop-color="#dfa57c" stop-opacity=".12"/><stop offset="1" stop-color="#dfa57c" stop-opacity="0"/></radialGradient><pattern id="p" width="32" height="32" patternUnits="userSpaceOnUse"><circle cx="1" cy="1" r=".8" fill="#dfa57c" opacity=".13"/></pattern></defs><rect width="720" height="460" fill="#191e17"/><rect width="720" height="460" fill="url(#p)"/><ellipse cx="365" cy="220" rx="340" ry="260" fill="url(#g)"/><g fill="none" stroke="#dfa57c"><ellipse cx="360" cy="351" rx="195" ry="35" opacity=".18"/><path d="M168 351H552M360 70V371" opacity=".15" stroke-dasharray="4 7"/><path d="M240 333v-38h99v38Z" fill="#29251d"/><path d="m267 295-34-111 41-18 44 129Z" fill="#28241c" stroke-width="1.5"/><path d="m256 179 99-75 29 34-103 68Z" fill="#30281e" stroke-width="1.5"/><path d="m372 112 83 87-21 25-90-78Z" fill="#24251c" stroke-width="1.5"/><circle cx="256" cy="183" r="24" fill="#1c211a" stroke-width="2"/><circle cx="256" cy="183" r="10"/><circle cx="363" cy="128" r="24" fill="#1c211a" stroke-width="2"/><circle cx="363" cy="128" r="10"/><circle cx="444" cy="211" r="16" fill="#1c211a" stroke-width="2"/><path d="m449 226 5 24-15 18m15-18 24 11" stroke-width="4"/><path d="m447 293 23-13 23 13v28l-23 13-23-13Z" fill="#dfa57c" fill-opacity=".13"/><path d="m447 293 23 14 23-14m-23 14v27"/><path d="M471 266v-17M505 296h19M431 296h-19" opacity=".5"/></g><g font-family="Arial,sans-serif" font-size="9" letter-spacing="2" fill="#dfa57c" opacity=".75"><text x="32" y="35">02 / PHYSICAL AI</text><text x="32" y="431">THE AI SPECTRUM</text><text x="647" y="431">FIG.02</text></g></svg>